#N canvas 142 92 1920 1136 12;
#X obj 315 180 inlet~;
#X obj 1046 191 inlet res;
#X obj 714 183 inlet fs;
#X obj 715 228 unpack f f f f f f f f;
#X obj 366 491 bp~ 1 1;
#X obj 473 490 bp~ 1 1;
#X obj 589 487 bp~ 1 1;
#X obj 694 484 bp~ 1 1;
#X obj 801 483 bp~ 1 1;
#X obj 917 480 bp~ 1 1;
#X obj 1007 477 bp~ 1 1;
#X obj 1123 474 bp~ 1 1;
#X obj 760 571 outlet~;
#X obj 1137 190 loadbang;
#X obj 1056 256 f \$1;
#X connect 0 0 4 0;
#X connect 0 0 11 0;
#X connect 0 0 10 0;
#X connect 0 0 9 0;
#X connect 0 0 8 0;
#X connect 0 0 7 0;
#X connect 0 0 6 0;
#X connect 0 0 5 0;
#X connect 1 0 14 0;
#X connect 2 0 3 0;
#X connect 3 0 4 1;
#X connect 3 1 5 1;
#X connect 3 2 6 1;
#X connect 3 3 7 1;
#X connect 3 4 8 1;
#X connect 3 5 9 1;
#X connect 3 6 10 1;
#X connect 3 7 11 1;
#X connect 4 0 12 0;
#X connect 5 0 12 0;
#X connect 6 0 12 0;
#X connect 7 0 12 0;
#X connect 8 0 12 0;
#X connect 9 0 12 0;
#X connect 10 0 12 0;
#X connect 11 0 12 0;
#X connect 13 0 14 0;
#X connect 14 0 11 2;
#X connect 14 0 10 2;
#X connect 14 0 9 2;
#X connect 14 0 8 2;
#X connect 14 0 7 2;
#X connect 14 0 6 2;
#X connect 14 0 5 2;
